<svg xmlns="http://www.w3.org/2000/svg" version="1.1" xmlns:xlink="http://www.w3.org/1999/xlink" width="1000" height="1000"><metadata><rdf:RDF xmlns:rdf="http://www.w3.org/1999/02/22-rdf-syntax-ns#" xmlns:dc="http://purl.org/dc/elements/1.1/"><rdf:Description><dc:creator>RealFaviconGenerator</dc:creator><dc:source>https://realfavicongenerator.net</dc:source></rdf:Description></rdf:RDF></metadata><style>
    #light-icon {
      display: inline;
    }
    #dark-icon {
      display: none;
    }

    @media (prefers-color-scheme: dark) {
      #light-icon {
        display: none;
      }
      #dark-icon {
        display: inline;
      }
    }
  </style><g id="light-icon"><svg xmlns="http://www.w3.org/2000/svg" version="1.1" xmlns:xlink="http://www.w3.org/1999/xlink" width="1000" height="1000"><g clip-path="url(#SvgjsClipPath1181)"><rect width="1000" height="1000" fill="#ffffff"></rect><g transform="matrix(0.5,0,0,0.5,0,0)"><svg xmlns="http://www.w3.org/2000/svg" version="1" xmlns:xlink="http://www.w3.org/1999/xlink" width="2000" zoomAndPan="magnify" viewBox="0 0 1500 1499.999933" height="2000" preserveAspectRatio="xMidYMid meet"><defs><filter x="0%" y="0%" width="100%" height="100%" id="1e2a1783d0"><feColorMatrix values="0 0 0 0 1 0 0 0 0 1 0 0 0 0 1 0 0 0 1 0" color-interpolation-filters="sRGB"></feColorMatrix></filter><g></g><clipPath id="107f4c8e6b"><path d="M 201.992188 193.257812 L 1276.742188 193.257812 L 1276.742188 1268.007812 L 201.992188 1268.007812 Z M 201.992188 193.257812 " clip-rule="nonzero"></path></clipPath><clipPath id="0d9ed880c3"><path d="M 0.992188 0.257812 L 1075.484375 0.257812 L 1075.484375 1075 L 0.992188 1075 Z M 0.992188 0.257812 " clip-rule="nonzero"></path></clipPath><clipPath id="cce166a76e"><rect x="0" width="1076" y="0" height="1076"></rect></clipPath><clipPath id="f41c498426"><path d="M 0 0 L 1500 0 L 1500 1500 L 0 1500 Z M 0 0 " clip-rule="nonzero"></path></clipPath><linearGradient x1="71.8673" gradientTransform="matrix(2.195344, 0, 0, 2.19518, -157.773409, -49.055171)" y1="278" x2="755.13147" gradientUnits="userSpaceOnUse" y2="278" id="e6162ee354"><stop stop-opacity="1" stop-color="rgb(10.978699%, 1.568604%, 6.669617%)" offset="0"></stop><stop stop-opacity="1" stop-color="rgb(10.978699%, 1.568604%, 6.669617%)" offset="0.5"></stop><stop stop-opacity="1" stop-color="rgb(10.978699%, 1.568604%, 6.669617%)" offset="0.625"></stop><stop stop-opacity="1" stop-color="rgb(10.978699%, 1.568604%, 6.669617%)" offset="0.65625"></stop><stop stop-opacity="1" stop-color="rgb(13.793945%, 2.478027%, 8.604431%)" offset="0.660156"></stop><stop stop-opacity="1" stop-color="rgb(16.610718%, 3.387451%, 10.540771%)" offset="0.664062"></stop><stop stop-opacity="1" stop-color="rgb(20.806885%, 4.742432%, 13.424683%)" offset="0.667969"></stop><stop stop-opacity="1" stop-color="rgb(25.004578%, 6.098938%, 16.31012%)" offset="0.671875"></stop><stop stop-opacity="1" stop-color="rgb(29.200745%, 7.453918%, 19.194031%)" offset="0.675781"></stop><stop stop-opacity="1" stop-color="rgb(33.396912%, 8.810425%, 22.079468%)" offset="0.679688"></stop><stop stop-opacity="1" stop-color="rgb(37.593079%, 10.165405%, 24.963379%)" offset="0.683594"></stop><stop stop-opacity="1" stop-color="rgb(41.790771%, 11.520386%, 27.848816%)" offset="0.6875"></stop><stop stop-opacity="1" stop-color="rgb(45.799255%, 13.108826%, 30.247498%)" offset="0.691406"></stop><stop stop-opacity="1" stop-color="rgb(49.807739%, 14.697266%, 32.646179%)" offset="0.695312"></stop><stop stop-opacity="1" stop-color="rgb(52.987671%, 17.311096%, 32.907104%)" offset="0.699219"></stop><stop stop-opacity="1" stop-color="rgb(56.169128%, 19.924927%, 33.16803%)" offset="0.703125"></stop><stop stop-opacity="1" stop-color="rgb(59.34906%, 22.538757%, 33.428955%)" offset="0.707031"></stop><stop stop-opacity="1" stop-color="rgb(62.530518%, 25.152588%, 33.68988%)" offset="0.710938"></stop><stop stop-opacity="1" stop-color="rgb(65.710449%, 27.766418%, 33.950806%)" offset="0.714844"></stop><stop stop-opacity="1" stop-color="rgb(68.890381%, 30.380249%, 34.213257%)" offset="0.71875"></stop><stop stop-opacity="1" stop-color="rgb(72.070312%, 32.99408%, 34.474182%)" offset="0.722656"></stop><stop stop-opacity="1" stop-color="rgb(75.25177%, 35.60791%, 34.735107%)" offset="0.726562"></stop><stop stop-opacity="1" stop-color="rgb(76.64032%, 37.208557%, 35.626221%)" offset="0.730469"></stop><stop stop-opacity="1" stop-color="rgb(78.02887%, 38.809204%, 36.51886%)" offset="0.734375"></stop><stop stop-opacity="1" stop-color="rgb(78.596497%, 39.945984%, 37.698364%)" offset="0.738281"></stop><stop stop-opacity="1" stop-color="rgb(79.165649%, 41.082764%, 38.879395%)" offset="0.742188"></stop><stop stop-opacity="1" stop-color="rgb(79.733276%, 42.219543%, 40.058899%)" offset="0.746094"></stop><stop stop-opacity="1" stop-color="rgb(80.302429%, 43.356323%, 41.239929%)" offset="0.75"></stop><stop stop-opacity="1" stop-color="rgb(80.871582%, 44.493103%, 42.420959%)" offset="0.753906"></stop><stop stop-opacity="1" stop-color="rgb(81.440735%, 45.631409%, 43.60199%)" offset="0.757812"></stop><stop stop-opacity="1" stop-color="rgb(81.893921%, 46.539307%, 44.544983%)" offset="0.761719"></stop><stop stop-opacity="1" stop-color="rgb(82.348633%, 47.44873%, 45.489502%)" offset="0.765625"></stop><stop stop-opacity="1" stop-color="rgb(82.348633%, 47.44873%, 45.489502%)" offset="0.78125"></stop><stop stop-opacity="1" stop-color="rgb(82.348633%, 47.44873%, 45.489502%)" offset="0.8125"></stop><stop stop-opacity="1" stop-color="rgb(82.348633%, 47.44873%, 45.489502%)" offset="0.875"></stop><stop stop-opacity="1" stop-color="rgb(82.348633%, 47.44873%, 45.489502%)" offset="1"></stop></linearGradient><clipPath id="872b4a8a38"><rect x="0" width="1500" y="0" height="1500"></rect></clipPath><clipPath id="aac37dbaf1"><rect x="0" width="1500" y="0" height="1500"></rect></clipPath><clipPath id="b1b435e11d"><rect x="0" width="1500" y="0" height="1500"></rect></clipPath><mask id="23d4828fcc"><g filter="url(#1e2a1783d0)"><g transform="matrix(1, 0, 0, 1, 0, 0.000000000000112861)"><g clip-path="url(#b1b435e11d)"><g transform="matrix(1, 0, 0, 1, 0, 0.000000000000112861)"><g clip-path="url(#aac37dbaf1)"><g fill="#000000" fill-opacity="1"><g transform="translate(987.076525, 880.579726)"><g><path d="M 54.046875 -113.78125 C 67.421875 -127.4375 84.859375 -134.265625 106.359375 -134.265625 C 127.867188 -134.265625 145.453125 -127.4375 159.109375 -113.78125 C 172.773438 -100.125 179.609375 -82.539062 179.609375 -61.03125 C 179.609375 -39.519531 172.773438 -21.9375 159.109375 -8.28125 C 145.453125 5.375 127.867188 12.203125 106.359375 12.203125 C 84.859375 12.203125 67.421875 5.375 54.046875 -8.28125 C 40.679688 -21.9375 34 -39.519531 34 -61.03125 C 34 -82.539062 40.679688 -100.125 54.046875 -113.78125 Z M 54.046875 -113.78125 "></path></g></g></g></g></g></g></g></g></mask><clipPath id="ced246cfba"><path d="M 0 0 L 1500 0 L 1500 1500 L 0 1500 Z M 0 0 " clip-rule="nonzero"></path></clipPath><clipPath id="d31ddd83b3"><rect x="0" width="1500" y="0" height="1500"></rect></clipPath><clipPath id="cf64722936"><rect x="0" width="1500" y="0" height="1500"></rect></clipPath><clipPath id="8fd4af4733"><rect x="0" width="1500" y="0" height="1500"></rect></clipPath><clipPath id="e576048200"><path d="M 0 0 L 1500 0 L 1500 1500 L 0 1500 Z M 0 0 " clip-rule="nonzero"></path></clipPath><linearGradient x1="193.670748" gradientTransform="matrix(2.195344, 0, 0, 2.19518, -425.173874, 217.811212)" y1="278" x2="876.934918" gradientUnits="userSpaceOnUse" y2="278" id="402dd849d8"><stop stop-opacity="1" stop-color="rgb(10.978699%, 1.568604%, 6.669617%)" offset="0"></stop><stop stop-opacity="1" stop-color="rgb(10.978699%, 1.568604%, 6.669617%)" offset="0.25"></stop><stop stop-opacity="1" stop-color="rgb(10.978699%, 1.568604%, 6.669617%)" offset="0.375"></stop><stop stop-opacity="1" stop-color="rgb(10.978699%, 1.568604%, 6.669617%)" offset="0.4375"></stop><stop stop-opacity="1" stop-color="rgb(10.978699%, 1.568604%, 6.669617%)" offset="0.46875"></stop><stop stop-opacity="1" stop-color="rgb(10.978699%, 1.568604%, 6.669617%)" offset="0.476562"></stop><stop stop-opacity="1" stop-color="rgb(13.031006%, 2.230835%, 8.079529%)" offset="0.480469"></stop><stop stop-opacity="1" stop-color="rgb(15.084839%, 2.894592%, 9.490967%)" offset="0.484375"></stop><stop stop-opacity="1" stop-color="rgb(19.281006%, 4.249573%, 12.374878%)" offset="0.488281"></stop><stop stop-opacity="1" stop-color="rgb(23.477173%, 5.606079%, 15.260315%)" offset="0.492188"></stop><stop stop-opacity="1" stop-color="rgb(27.67334%, 6.96106%, 18.144226%)" offset="0.496094"></stop><stop stop-opacity="1" stop-color="rgb(31.871033%, 8.31604%, 21.029663%)" offset="0.5"></stop><stop stop-opacity="1" stop-color="rgb(36.0672%, 9.671021%, 23.913574%)" offset="0.503906"></stop><stop stop-opacity="1" stop-color="rgb(40.264893%, 11.027527%, 26.799011%)" offset="0.507812"></stop><stop stop-opacity="1" stop-color="rgb(44.458008%, 12.387085%, 29.675293%)" offset="0.511719"></stop><stop stop-opacity="1" stop-color="rgb(48.651123%, 13.746643%, 32.551575%)" offset="0.515625"></stop><stop stop-opacity="1" stop-color="rgb(51.831055%, 16.360474%, 32.8125%)" offset="0.519531"></stop><stop stop-opacity="1" stop-color="rgb(55.012512%, 18.974304%, 33.073425%)" offset="0.523437"></stop><stop stop-opacity="1" stop-color="rgb(58.192444%, 21.588135%, 33.334351%)" offset="0.527344"></stop><stop stop-opacity="1" stop-color="rgb(61.373901%, 24.201965%, 33.595276%)" offset="0.53125"></stop><stop stop-opacity="1" stop-color="rgb(64.553833%, 26.815796%, 33.856201%)" offset="0.535156"></stop><stop stop-opacity="1" stop-color="rgb(67.733765%, 29.429626%, 34.118652%)" offset="0.539062"></stop><stop stop-opacity="1" stop-color="rgb(70.913696%, 32.043457%, 34.379578%)" offset="0.542969"></stop><stop stop-opacity="1" stop-color="rgb(74.095154%, 34.657288%, 34.640503%)" offset="0.546875"></stop><stop stop-opacity="1" stop-color="rgb(75.958252%, 36.526489%, 35.365295%)" offset="0.550781"></stop><stop stop-opacity="1" stop-color="rgb(77.822876%, 38.395691%, 36.090088%)" offset="0.554688"></stop><stop stop-opacity="1" stop-color="rgb(78.390503%, 39.532471%, 37.269592%)" offset="0.558594"></stop><stop stop-opacity="1" stop-color="rgb(78.959656%, 40.66925%, 38.450623%)" offset="0.5625"></stop><stop stop-opacity="1" stop-color="rgb(79.527283%, 41.80603%, 39.630127%)" offset="0.566406"></stop><stop stop-opacity="1" stop-color="rgb(80.096436%, 42.94281%, 40.811157%)" offset="0.570312"></stop><stop stop-opacity="1" stop-color="rgb(80.664062%, 44.07959%, 41.990662%)" offset="0.574219"></stop><stop stop-opacity="1" stop-color="rgb(81.233215%, 45.217896%, 43.171692%)" offset="0.578125"></stop><stop stop-opacity="1" stop-color="rgb(81.790161%, 46.333313%, 44.329834%)" offset="0.582031"></stop><stop stop-opacity="1" stop-color="rgb(82.348633%, 47.44873%, 45.489502%)" offset="0.585937"></stop><stop stop-opacity="1" stop-color="rgb(82.348633%, 47.44873%, 45.489502%)" offset="0.59375"></stop><stop stop-opacity="1" stop-color="rgb(82.348633%, 47.44873%, 45.489502%)" offset="0.625"></stop><stop stop-opacity="1" stop-color="rgb(82.348633%, 47.44873%, 45.489502%)" offset="0.75"></stop><stop stop-opacity="1" stop-color="rgb(82.348633%, 47.44873%, 45.489502%)" offset="1"></stop></linearGradient><clipPath id="3cd69ecb81"><rect x="0" width="1500" y="0" height="1500"></rect></clipPath><clipPath id="ea49c09c70"><rect x="0" width="1500" y="0" height="1500"></rect></clipPath><clipPath id="6717abf54c"><rect x="0" width="1500" y="0" height="1500"></rect></clipPath><mask id="5cc9c8e701"><g filter="url(#1e2a1783d0)"><g transform="matrix(1, 0, 0, 1, 0, 0.000000000000112861)"><g clip-path="url(#6717abf54c)"><g transform="matrix(1, 0, 0, 1, 0, 0.000000000000112861)"><g clip-path="url(#ea49c09c70)"><g fill="#000000" fill-opacity="1"><g transform="translate(719.676024, 1147.446167)"><g><path d="M 54.046875 -113.78125 C 67.421875 -127.4375 84.859375 -134.265625 106.359375 -134.265625 C 127.867188 -134.265625 145.453125 -127.4375 159.109375 -113.78125 C 172.773438 -100.125 179.609375 -82.539062 179.609375 -61.03125 C 179.609375 -39.519531 172.773438 -21.9375 159.109375 -8.28125 C 145.453125 5.375 127.867188 12.203125 106.359375 12.203125 C 84.859375 12.203125 67.421875 5.375 54.046875 -8.28125 C 40.679688 -21.9375 34 -39.519531 34 -61.03125 C 34 -82.539062 40.679688 -100.125 54.046875 -113.78125 Z M 54.046875 -113.78125 "></path></g></g></g></g></g></g></g></g></mask><clipPath id="67ed627f69"><path d="M 0 0 L 1500 0 L 1500 1500 L 0 1500 Z M 0 0 " clip-rule="nonzero"></path></clipPath><clipPath id="a135c53fac"><rect x="0" width="1500" y="0" height="1500"></rect></clipPath><clipPath id="e0ece805cd"><rect x="0" width="1500" y="0" height="1500"></rect></clipPath><clipPath id="6b52a7c60c"><rect x="0" width="1500" y="0" height="1500"></rect></clipPath><clipPath id="SvgjsClipPath1181"><rect width="1000" height="1000" x="0" y="0" rx="300" ry="300"></rect></clipPath></defs><rect x="-150" width="1800" fill="#ffffff" y="-149.999993" height="1799.99992" fill-opacity="1"></rect><rect x="-150" width="1800" fill="#ffffff" y="-149.999993" height="1799.99992" fill-opacity="1"></rect><g clip-path="url(#107f4c8e6b)"><g transform="matrix(1, 0, 0, 1, 201, 193)"><g clip-path="url(#cce166a76e)"><path fill="#0d0e10" d="M 572.652344 946.824219 C 544.972656 919.132812 544.972656 874.25 572.652344 846.558594 C 600.34375 818.871094 645.238281 818.871094 672.917969 846.558594 C 700.609375 874.25 700.609375 919.132812 672.917969 946.824219 C 645.238281 974.515625 600.34375 974.515625 572.652344 946.824219 " fill-opacity="1" fill-rule="nonzero"></path><g clip-path="url(#0d9ed880c3)"><path fill="#0d0e10" d="M 538.238281 0.21875 C 834.976562 0.21875 1075.523438 240.765625 1075.523438 537.503906 C 1075.523438 550.558594 1075.027344 563.492188 1074.113281 576.304688 C 943.015625 450.398438 739.3125 444.375 601.332031 558.367188 L 439.347656 396.382812 C 462.816406 356.648438 457.476562 304.617188 423.34375 270.476562 C 382.875 230.015625 317.277344 230.015625 276.820312 270.476562 C 236.347656 310.945312 236.347656 376.542969 276.820312 417 C 310.949219 451.144531 362.992188 456.480469 402.714844 433.015625 L 563.855469 594.148438 C 440.429688 730.257812 441.15625 938.773438 565.894531 1074.085938 C 556.742188 1074.558594 547.515625 1074.792969 538.238281 1074.792969 C 241.5 1074.792969 0.949219 834.242188 0.949219 537.503906 C 0.949219 240.765625 241.5 0.21875 538.238281 0.21875 " fill-opacity="1" fill-rule="nonzero"></path></g><path fill="#0d0e10" d="M 941.503906 577.976562 C 969.195312 605.664062 969.195312 650.558594 941.503906 678.238281 C 913.8125 705.929688 868.929688 705.929688 841.238281 678.238281 C 813.546875 650.558594 813.546875 605.664062 841.238281 577.976562 C 868.929688 550.292969 913.8125 550.292969 941.503906 577.976562 " fill-opacity="1" fill-rule="nonzero"></path></g></g></g><g transform="matrix(1, 0, 0, 1, 0, 0.000000000000112861)"><g clip-path="url(#8fd4af4733)"><g transform="matrix(1, 0, 0, 1, 0, 0.000000000000112861)"><g clip-path="url(#cf64722936)"><g mask="url(#23d4828fcc)"><g transform="matrix(1, 0, 0, 1, 0, 0.000000000000112861)"><g clip-path="url(#d31ddd83b3)"><g clip-path="url(#ced246cfba)"><rect x="-805.2" fill="url(#e6162ee354)" width="3110.4" height="3110.399862" y="-805.199964"></rect></g></g></g></g></g></g></g></g><g transform="matrix(1, 0, 0, 1, 0, 0.000000000000112861)"><g clip-path="url(#6b52a7c60c)"><g transform="matrix(1, 0, 0, 1, 0, 0.000000000000112861)"><g clip-path="url(#e0ece805cd)"><g mask="url(#5cc9c8e701)"><g transform="matrix(1, 0, 0, 1, 0, 0.000000000000112861)"><g clip-path="url(#a135c53fac)"><g clip-path="url(#67ed627f69)"><rect x="-805.2" fill="url(#402dd849d8)" width="3110.4" height="3110.399862" y="-805.199964"></rect></g></g></g></g></g></g></g></g></svg></g></g></svg></g><g id="dark-icon"><svg xmlns="http://www.w3.org/2000/svg" version="1.1" xmlns:xlink="http://www.w3.org/1999/xlink" width="1000" height="1000"><g clip-path="url(#SvgjsClipPath1182)"><rect width="1000" height="1000" fill="#ffffff"></rect><g transform="matrix(0.5,0,0,0.5,0,0)"><svg xmlns="http://www.w3.org/2000/svg" version="1" xmlns:xlink="http://www.w3.org/1999/xlink" width="2000" zoomAndPan="magnify" viewBox="0 0 1500 1499.999933" height="2000" preserveAspectRatio="xMidYMid meet"><defs><filter x="0%" y="0%" width="100%" height="100%" id="1e2a1783d0"><feColorMatrix values="0 0 0 0 1 0 0 0 0 1 0 0 0 0 1 0 0 0 1 0" color-interpolation-filters="sRGB"></feColorMatrix></filter><g></g><clipPath id="107f4c8e6b"><path d="M 201.992188 193.257812 L 1276.742188 193.257812 L 1276.742188 1268.007812 L 201.992188 1268.007812 Z M 201.992188 193.257812 " clip-rule="nonzero"></path></clipPath><clipPath id="0d9ed880c3"><path d="M 0.992188 0.257812 L 1075.484375 0.257812 L 1075.484375 1075 L 0.992188 1075 Z M 0.992188 0.257812 " clip-rule="nonzero"></path></clipPath><clipPath id="cce166a76e"><rect x="0" width="1076" y="0" height="1076"></rect></clipPath><clipPath id="f41c498426"><path d="M 0 0 L 1500 0 L 1500 1500 L 0 1500 Z M 0 0 " clip-rule="nonzero"></path></clipPath><linearGradient x1="71.8673" gradientTransform="matrix(2.195344, 0, 0, 2.19518, -157.773409, -49.055171)" y1="278" x2="755.13147" gradientUnits="userSpaceOnUse" y2="278" id="e6162ee354"><stop stop-opacity="1" stop-color="rgb(10.978699%, 1.568604%, 6.669617%)" offset="0"></stop><stop stop-opacity="1" stop-color="rgb(10.978699%, 1.568604%, 6.669617%)" offset="0.5"></stop><stop stop-opacity="1" stop-color="rgb(10.978699%, 1.568604%, 6.669617%)" offset="0.625"></stop><stop stop-opacity="1" stop-color="rgb(10.978699%, 1.568604%, 6.669617%)" offset="0.65625"></stop><stop stop-opacity="1" stop-color="rgb(13.793945%, 2.478027%, 8.604431%)" offset="0.660156"></stop><stop stop-opacity="1" stop-color="rgb(16.610718%, 3.387451%, 10.540771%)" offset="0.664062"></stop><stop stop-opacity="1" stop-color="rgb(20.806885%, 4.742432%, 13.424683%)" offset="0.667969"></stop><stop stop-opacity="1" stop-color="rgb(25.004578%, 6.098938%, 16.31012%)" offset="0.671875"></stop><stop stop-opacity="1" stop-color="rgb(29.200745%, 7.453918%, 19.194031%)" offset="0.675781"></stop><stop stop-opacity="1" stop-color="rgb(33.396912%, 8.810425%, 22.079468%)" offset="0.679688"></stop><stop stop-opacity="1" stop-color="rgb(37.593079%, 10.165405%, 24.963379%)" offset="0.683594"></stop><stop stop-opacity="1" stop-color="rgb(41.790771%, 11.520386%, 27.848816%)" offset="0.6875"></stop><stop stop-opacity="1" stop-color="rgb(45.799255%, 13.108826%, 30.247498%)" offset="0.691406"></stop><stop stop-opacity="1" stop-color="rgb(49.807739%, 14.697266%, 32.646179%)" offset="0.695312"></stop><stop stop-opacity="1" stop-color="rgb(52.987671%, 17.311096%, 32.907104%)" offset="0.699219"></stop><stop stop-opacity="1" stop-color="rgb(56.169128%, 19.924927%, 33.16803%)" offset="0.703125"></stop><stop stop-opacity="1" stop-color="rgb(59.34906%, 22.538757%, 33.428955%)" offset="0.707031"></stop><stop stop-opacity="1" stop-color="rgb(62.530518%, 25.152588%, 33.68988%)" offset="0.710938"></stop><stop stop-opacity="1" stop-color="rgb(65.710449%, 27.766418%, 33.950806%)" offset="0.714844"></stop><stop stop-opacity="1" stop-color="rgb(68.890381%, 30.380249%, 34.213257%)" offset="0.71875"></stop><stop stop-opacity="1" stop-color="rgb(72.070312%, 32.99408%, 34.474182%)" offset="0.722656"></stop><stop stop-opacity="1" stop-color="rgb(75.25177%, 35.60791%, 34.735107%)" offset="0.726562"></stop><stop stop-opacity="1" stop-color="rgb(76.64032%, 37.208557%, 35.626221%)" offset="0.730469"></stop><stop stop-opacity="1" stop-color="rgb(78.02887%, 38.809204%, 36.51886%)" offset="0.734375"></stop><stop stop-opacity="1" stop-color="rgb(78.596497%, 39.945984%, 37.698364%)" offset="0.738281"></stop><stop stop-opacity="1" stop-color="rgb(79.165649%, 41.082764%, 38.879395%)" offset="0.742188"></stop><stop stop-opacity="1" stop-color="rgb(79.733276%, 42.219543%, 40.058899%)" offset="0.746094"></stop><stop stop-opacity="1" stop-color="rgb(80.302429%, 43.356323%, 41.239929%)" offset="0.75"></stop><stop stop-opacity="1" stop-color="rgb(80.871582%, 44.493103%, 42.420959%)" offset="0.753906"></stop><stop stop-opacity="1" stop-color="rgb(81.440735%, 45.631409%, 43.60199%)" offset="0.757812"></stop><stop stop-opacity="1" stop-color="rgb(81.893921%, 46.539307%, 44.544983%)" offset="0.761719"></stop><stop stop-opacity="1" stop-color="rgb(82.348633%, 47.44873%, 45.489502%)" offset="0.765625"></stop><stop stop-opacity="1" stop-color="rgb(82.348633%, 47.44873%, 45.489502%)" offset="0.78125"></stop><stop stop-opacity="1" stop-color="rgb(82.348633%, 47.44873%, 45.489502%)" offset="0.8125"></stop><stop stop-opacity="1" stop-color="rgb(82.348633%, 47.44873%, 45.489502%)" offset="0.875"></stop><stop stop-opacity="1" stop-color="rgb(82.348633%, 47.44873%, 45.489502%)" offset="1"></stop></linearGradient><clipPath id="872b4a8a38"><rect x="0" width="1500" y="0" height="1500"></rect></clipPath><clipPath id="aac37dbaf1"><rect x="0" width="1500" y="0" height="1500"></rect></clipPath><clipPath id="b1b435e11d"><rect x="0" width="1500" y="0" height="1500"></rect></clipPath><mask id="23d4828fcc"><g filter="url(#1e2a1783d0)"><g transform="matrix(1, 0, 0, 1, 0, 0.000000000000112861)"><g clip-path="url(#b1b435e11d)"><g transform="matrix(1, 0, 0, 1, 0, 0.000000000000112861)"><g clip-path="url(#aac37dbaf1)"><g fill="#000000" fill-opacity="1"><g transform="translate(987.076525, 880.579726)"><g><path d="M 54.046875 -113.78125 C 67.421875 -127.4375 84.859375 -134.265625 106.359375 -134.265625 C 127.867188 -134.265625 145.453125 -127.4375 159.109375 -113.78125 C 172.773438 -100.125 179.609375 -82.539062 179.609375 -61.03125 C 179.609375 -39.519531 172.773438 -21.9375 159.109375 -8.28125 C 145.453125 5.375 127.867188 12.203125 106.359375 12.203125 C 84.859375 12.203125 67.421875 5.375 54.046875 -8.28125 C 40.679688 -21.9375 34 -39.519531 34 -61.03125 C 34 -82.539062 40.679688 -100.125 54.046875 -113.78125 Z M 54.046875 -113.78125 "></path></g></g></g></g></g></g></g></g></mask><clipPath id="ced246cfba"><path d="M 0 0 L 1500 0 L 1500 1500 L 0 1500 Z M 0 0 " clip-rule="nonzero"></path></clipPath><clipPath id="d31ddd83b3"><rect x="0" width="1500" y="0" height="1500"></rect></clipPath><clipPath id="cf64722936"><rect x="0" width="1500" y="0" height="1500"></rect></clipPath><clipPath id="8fd4af4733"><rect x="0" width="1500" y="0" height="1500"></rect></clipPath><clipPath id="e576048200"><path d="M 0 0 L 1500 0 L 1500 1500 L 0 1500 Z M 0 0 " clip-rule="nonzero"></path></clipPath><linearGradient x1="193.670748" gradientTransform="matrix(2.195344, 0, 0, 2.19518, -425.173874, 217.811212)" y1="278" x2="876.934918" gradientUnits="userSpaceOnUse" y2="278" id="402dd849d8"><stop stop-opacity="1" stop-color="rgb(10.978699%, 1.568604%, 6.669617%)" offset="0"></stop><stop stop-opacity="1" stop-color="rgb(10.978699%, 1.568604%, 6.669617%)" offset="0.25"></stop><stop stop-opacity="1" stop-color="rgb(10.978699%, 1.568604%, 6.669617%)" offset="0.375"></stop><stop stop-opacity="1" stop-color="rgb(10.978699%, 1.568604%, 6.669617%)" offset="0.4375"></stop><stop stop-opacity="1" stop-color="rgb(10.978699%, 1.568604%, 6.669617%)" offset="0.46875"></stop><stop stop-opacity="1" stop-color="rgb(10.978699%, 1.568604%, 6.669617%)" offset="0.476562"></stop><stop stop-opacity="1" stop-color="rgb(13.031006%, 2.230835%, 8.079529%)" offset="0.480469"></stop><stop stop-opacity="1" stop-color="rgb(15.084839%, 2.894592%, 9.490967%)" offset="0.484375"></stop><stop stop-opacity="1" stop-color="rgb(19.281006%, 4.249573%, 12.374878%)" offset="0.488281"></stop><stop stop-opacity="1" stop-color="rgb(23.477173%, 5.606079%, 15.260315%)" offset="0.492188"></stop><stop stop-opacity="1" stop-color="rgb(27.67334%, 6.96106%, 18.144226%)" offset="0.496094"></stop><stop stop-opacity="1" stop-color="rgb(31.871033%, 8.31604%, 21.029663%)" offset="0.5"></stop><stop stop-opacity="1" stop-color="rgb(36.0672%, 9.671021%, 23.913574%)" offset="0.503906"></stop><stop stop-opacity="1" stop-color="rgb(40.264893%, 11.027527%, 26.799011%)" offset="0.507812"></stop><stop stop-opacity="1" stop-color="rgb(44.458008%, 12.387085%, 29.675293%)" offset="0.511719"></stop><stop stop-opacity="1" stop-color="rgb(48.651123%, 13.746643%, 32.551575%)" offset="0.515625"></stop><stop stop-opacity="1" stop-color="rgb(51.831055%, 16.360474%, 32.8125%)" offset="0.519531"></stop><stop stop-opacity="1" stop-color="rgb(55.012512%, 18.974304%, 33.073425%)" offset="0.523437"></stop><stop stop-opacity="1" stop-color="rgb(58.192444%, 21.588135%, 33.334351%)" offset="0.527344"></stop><stop stop-opacity="1" stop-color="rgb(61.373901%, 24.201965%, 33.595276%)" offset="0.53125"></stop><stop stop-opacity="1" stop-color="rgb(64.553833%, 26.815796%, 33.856201%)" offset="0.535156"></stop><stop stop-opacity="1" stop-color="rgb(67.733765%, 29.429626%, 34.118652%)" offset="0.539062"></stop><stop stop-opacity="1" stop-color="rgb(70.913696%, 32.043457%, 34.379578%)" offset="0.542969"></stop><stop stop-opacity="1" stop-color="rgb(74.095154%, 34.657288%, 34.640503%)" offset="0.546875"></stop><stop stop-opacity="1" stop-color="rgb(75.958252%, 36.526489%, 35.365295%)" offset="0.550781"></stop><stop stop-opacity="1" stop-color="rgb(77.822876%, 38.395691%, 36.090088%)" offset="0.554688"></stop><stop stop-opacity="1" stop-color="rgb(78.390503%, 39.532471%, 37.269592%)" offset="0.558594"></stop><stop stop-opacity="1" stop-color="rgb(78.959656%, 40.66925%, 38.450623%)" offset="0.5625"></stop><stop stop-opacity="1" stop-color="rgb(79.527283%, 41.80603%, 39.630127%)" offset="0.566406"></stop><stop stop-opacity="1" stop-color="rgb(80.096436%, 42.94281%, 40.811157%)" offset="0.570312"></stop><stop stop-opacity="1" stop-color="rgb(80.664062%, 44.07959%, 41.990662%)" offset="0.574219"></stop><stop stop-opacity="1" stop-color="rgb(81.233215%, 45.217896%, 43.171692%)" offset="0.578125"></stop><stop stop-opacity="1" stop-color="rgb(81.790161%, 46.333313%, 44.329834%)" offset="0.582031"></stop><stop stop-opacity="1" stop-color="rgb(82.348633%, 47.44873%, 45.489502%)" offset="0.585937"></stop><stop stop-opacity="1" stop-color="rgb(82.348633%, 47.44873%, 45.489502%)" offset="0.59375"></stop><stop stop-opacity="1" stop-color="rgb(82.348633%, 47.44873%, 45.489502%)" offset="0.625"></stop><stop stop-opacity="1" stop-color="rgb(82.348633%, 47.44873%, 45.489502%)" offset="0.75"></stop><stop stop-opacity="1" stop-color="rgb(82.348633%, 47.44873%, 45.489502%)" offset="1"></stop></linearGradient><clipPath id="3cd69ecb81"><rect x="0" width="1500" y="0" height="1500"></rect></clipPath><clipPath id="ea49c09c70"><rect x="0" width="1500" y="0" height="1500"></rect></clipPath><clipPath id="6717abf54c"><rect x="0" width="1500" y="0" height="1500"></rect></clipPath><mask id="5cc9c8e701"><g filter="url(#1e2a1783d0)"><g transform="matrix(1, 0, 0, 1, 0, 0.000000000000112861)"><g clip-path="url(#6717abf54c)"><g transform="matrix(1, 0, 0, 1, 0, 0.000000000000112861)"><g clip-path="url(#ea49c09c70)"><g fill="#000000" fill-opacity="1"><g transform="translate(719.676024, 1147.446167)"><g><path d="M 54.046875 -113.78125 C 67.421875 -127.4375 84.859375 -134.265625 106.359375 -134.265625 C 127.867188 -134.265625 145.453125 -127.4375 159.109375 -113.78125 C 172.773438 -100.125 179.609375 -82.539062 179.609375 -61.03125 C 179.609375 -39.519531 172.773438 -21.9375 159.109375 -8.28125 C 145.453125 5.375 127.867188 12.203125 106.359375 12.203125 C 84.859375 12.203125 67.421875 5.375 54.046875 -8.28125 C 40.679688 -21.9375 34 -39.519531 34 -61.03125 C 34 -82.539062 40.679688 -100.125 54.046875 -113.78125 Z M 54.046875 -113.78125 "></path></g></g></g></g></g></g></g></g></mask><clipPath id="67ed627f69"><path d="M 0 0 L 1500 0 L 1500 1500 L 0 1500 Z M 0 0 " clip-rule="nonzero"></path></clipPath><clipPath id="a135c53fac"><rect x="0" width="1500" y="0" height="1500"></rect></clipPath><clipPath id="e0ece805cd"><rect x="0" width="1500" y="0" height="1500"></rect></clipPath><clipPath id="6b52a7c60c"><rect x="0" width="1500" y="0" height="1500"></rect></clipPath><clipPath id="SvgjsClipPath1182"><rect width="1000" height="1000" x="0" y="0" rx="300" ry="300"></rect></clipPath></defs><rect x="-150" width="1800" fill="#ffffff" y="-149.999993" height="1799.99992" fill-opacity="1"></rect><rect x="-150" width="1800" fill="#ffffff" y="-149.999993" height="1799.99992" fill-opacity="1"></rect><g clip-path="url(#107f4c8e6b)"><g transform="matrix(1, 0, 0, 1, 201, 193)"><g clip-path="url(#cce166a76e)"><path fill="#0d0e10" d="M 572.652344 946.824219 C 544.972656 919.132812 544.972656 874.25 572.652344 846.558594 C 600.34375 818.871094 645.238281 818.871094 672.917969 846.558594 C 700.609375 874.25 700.609375 919.132812 672.917969 946.824219 C 645.238281 974.515625 600.34375 974.515625 572.652344 946.824219 " fill-opacity="1" fill-rule="nonzero"></path><g clip-path="url(#0d9ed880c3)"><path fill="#0d0e10" d="M 538.238281 0.21875 C 834.976562 0.21875 1075.523438 240.765625 1075.523438 537.503906 C 1075.523438 550.558594 1075.027344 563.492188 1074.113281 576.304688 C 943.015625 450.398438 739.3125 444.375 601.332031 558.367188 L 439.347656 396.382812 C 462.816406 356.648438 457.476562 304.617188 423.34375 270.476562 C 382.875 230.015625 317.277344 230.015625 276.820312 270.476562 C 236.347656 310.945312 236.347656 376.542969 276.820312 417 C 310.949219 451.144531 362.992188 456.480469 402.714844 433.015625 L 563.855469 594.148438 C 440.429688 730.257812 441.15625 938.773438 565.894531 1074.085938 C 556.742188 1074.558594 547.515625 1074.792969 538.238281 1074.792969 C 241.5 1074.792969 0.949219 834.242188 0.949219 537.503906 C 0.949219 240.765625 241.5 0.21875 538.238281 0.21875 " fill-opacity="1" fill-rule="nonzero"></path></g><path fill="#0d0e10" d="M 941.503906 577.976562 C 969.195312 605.664062 969.195312 650.558594 941.503906 678.238281 C 913.8125 705.929688 868.929688 705.929688 841.238281 678.238281 C 813.546875 650.558594 813.546875 605.664062 841.238281 577.976562 C 868.929688 550.292969 913.8125 550.292969 941.503906 577.976562 " fill-opacity="1" fill-rule="nonzero"></path></g></g></g><g transform="matrix(1, 0, 0, 1, 0, 0.000000000000112861)"><g clip-path="url(#8fd4af4733)"><g transform="matrix(1, 0, 0, 1, 0, 0.000000000000112861)"><g clip-path="url(#cf64722936)"><g mask="url(#23d4828fcc)"><g transform="matrix(1, 0, 0, 1, 0, 0.000000000000112861)"><g clip-path="url(#d31ddd83b3)"><g clip-path="url(#ced246cfba)"><rect x="-805.2" fill="url(#e6162ee354)" width="3110.4" height="3110.399862" y="-805.199964"></rect></g></g></g></g></g></g></g></g><g transform="matrix(1, 0, 0, 1, 0, 0.000000000000112861)"><g clip-path="url(#6b52a7c60c)"><g transform="matrix(1, 0, 0, 1, 0, 0.000000000000112861)"><g clip-path="url(#e0ece805cd)"><g mask="url(#5cc9c8e701)"><g transform="matrix(1, 0, 0, 1, 0, 0.000000000000112861)"><g clip-path="url(#a135c53fac)"><g clip-path="url(#67ed627f69)"><rect x="-805.2" fill="url(#402dd849d8)" width="3110.4" height="3110.399862" y="-805.199964"></rect></g></g></g></g></g></g></g></g></svg></g></g></svg></g></svg>