<svg xmlns="http://www.w3.org/2000/svg" xmlns:xlink="http://www.w3.org/1999/xlink" width="2000" zoomAndPan="magnify" viewBox="0 0 1500 1499.999933" height="2000" preserveAspectRatio="xMidYMid meet" version="1.0"><defs><filter x="0%" y="0%" width="100%" height="100%" id="1d31f64d9e"><feColorMatrix values="0 0 0 0 1 0 0 0 0 1 0 0 0 0 1 0 0 0 1 0" color-interpolation-filters="sRGB"/></filter><g/><clipPath id="756667236f"><path d="M 0 27.222656 L 1500 27.222656 L 1500 1500 L 0 1500 Z M 0 27.222656 " clip-rule="nonzero"/></clipPath><linearGradient x1="-429.315768" gradientTransform="matrix(0.750026, 0, 0, 0.750055, 321.997887, 593.081593)" y1="278" x2="1570.615563" gradientUnits="userSpaceOnUse" y2="278" id="5800b60aa4"><stop stop-opacity="1" stop-color="rgb(10.978699%, 1.568604%, 6.669617%)" offset="0"/><stop stop-opacity="1" stop-color="rgb(10.978699%, 1.568604%, 6.669617%)" offset="0.125"/><stop stop-opacity="1" stop-color="rgb(10.978699%, 1.568604%, 6.669617%)" offset="0.1875"/><stop stop-opacity="1" stop-color="rgb(10.978699%, 1.568604%, 6.669617%)" offset="0.21875"/><stop stop-opacity="1" stop-color="rgb(10.978699%, 1.568604%, 6.669617%)" offset="0.234375"/><stop stop-opacity="1" stop-color="rgb(10.978699%, 1.568604%, 6.669617%)" offset="0.242187"/><stop stop-opacity="1" stop-color="rgb(11.392212%, 1.701355%, 6.95343%)" offset="0.246094"/><stop stop-opacity="1" stop-color="rgb(11.805725%, 1.835632%, 7.237244%)" offset="0.25"/><stop stop-opacity="1" stop-color="rgb(12.698364%, 2.124023%, 7.850647%)" offset="0.253906"/><stop stop-opacity="1" stop-color="rgb(13.591003%, 2.412415%, 8.465576%)" offset="0.257812"/><stop stop-opacity="1" stop-color="rgb(14.483643%, 2.700806%, 9.078979%)" offset="0.261719"/><stop stop-opacity="1" stop-color="rgb(15.377808%, 2.989197%, 9.692383%)" offset="0.265625"/><stop stop-opacity="1" stop-color="rgb(16.270447%, 3.277588%, 10.305786%)" offset="0.269531"/><stop stop-opacity="1" stop-color="rgb(17.164612%, 3.565979%, 10.920715%)" offset="0.273438"/><stop stop-opacity="1" stop-color="rgb(18.057251%, 3.85437%, 11.534119%)" offset="0.277344"/><stop stop-opacity="1" stop-color="rgb(18.94989%, 4.144287%, 12.147522%)" offset="0.28125"/><stop stop-opacity="1" stop-color="rgb(19.842529%, 4.432678%, 12.760925%)" offset="0.285156"/><stop stop-opacity="1" stop-color="rgb(20.736694%, 4.721069%, 13.375854%)" offset="0.289062"/><stop stop-opacity="1" stop-color="rgb(21.629333%, 5.00946%, 13.989258%)" offset="0.292969"/><stop stop-opacity="1" stop-color="rgb(22.521973%, 5.297852%, 14.604187%)" offset="0.296875"/><stop stop-opacity="1" stop-color="rgb(23.414612%, 5.586243%, 15.21759%)" offset="0.300781"/><stop stop-opacity="1" stop-color="rgb(24.308777%, 5.874634%, 15.830994%)" offset="0.304687"/><stop stop-opacity="1" stop-color="rgb(25.201416%, 6.163025%, 16.444397%)" offset="0.308594"/><stop stop-opacity="1" stop-color="rgb(26.094055%, 6.451416%, 17.059326%)" offset="0.3125"/><stop stop-opacity="1" stop-color="rgb(26.986694%, 6.739807%, 17.672729%)" offset="0.316406"/><stop stop-opacity="1" stop-color="rgb(27.880859%, 7.028198%, 18.286133%)" offset="0.320312"/><stop stop-opacity="1" stop-color="rgb(28.773499%, 7.316589%, 18.899536%)" offset="0.324219"/><stop stop-opacity="1" stop-color="rgb(29.666138%, 7.60498%, 19.514465%)" offset="0.328125"/><stop stop-opacity="1" stop-color="rgb(30.558777%, 7.893372%, 20.127869%)" offset="0.332031"/><stop stop-opacity="1" stop-color="rgb(31.452942%, 8.181763%, 20.742798%)" offset="0.335937"/><stop stop-opacity="1" stop-color="rgb(32.345581%, 8.470154%, 21.356201%)" offset="0.339844"/><stop stop-opacity="1" stop-color="rgb(33.23822%, 8.758545%, 21.969604%)" offset="0.34375"/><stop stop-opacity="1" stop-color="rgb(34.130859%, 9.046936%, 22.583008%)" offset="0.347656"/><stop stop-opacity="1" stop-color="rgb(35.025024%, 9.335327%, 23.197937%)" offset="0.351562"/><stop stop-opacity="1" stop-color="rgb(35.917664%, 9.623718%, 23.81134%)" offset="0.355469"/><stop stop-opacity="1" stop-color="rgb(36.810303%, 9.912109%, 24.424744%)" offset="0.359375"/><stop stop-opacity="1" stop-color="rgb(37.702942%, 10.2005%, 25.038147%)" offset="0.363281"/><stop stop-opacity="1" stop-color="rgb(38.597107%, 10.488892%, 25.653076%)" offset="0.367187"/><stop stop-opacity="1" stop-color="rgb(39.489746%, 10.777283%, 26.266479%)" offset="0.371094"/><stop stop-opacity="1" stop-color="rgb(40.382385%, 11.065674%, 26.881409%)" offset="0.375"/><stop stop-opacity="1" stop-color="rgb(41.275024%, 11.354065%, 27.494812%)" offset="0.378906"/><stop stop-opacity="1" stop-color="rgb(42.169189%, 11.642456%, 28.108215%)" offset="0.382812"/><stop stop-opacity="1" stop-color="rgb(43.061829%, 11.930847%, 28.721619%)" offset="0.386719"/><stop stop-opacity="1" stop-color="rgb(43.954468%, 12.219238%, 29.336548%)" offset="0.390625"/><stop stop-opacity="1" stop-color="rgb(44.847107%, 12.507629%, 29.949951%)" offset="0.394531"/><stop stop-opacity="1" stop-color="rgb(45.741272%, 12.796021%, 30.563354%)" offset="0.398437"/><stop stop-opacity="1" stop-color="rgb(46.633911%, 13.084412%, 31.176758%)" offset="0.402344"/><stop stop-opacity="1" stop-color="rgb(47.528076%, 13.372803%, 31.791687%)" offset="0.40625"/><stop stop-opacity="1" stop-color="rgb(48.336792%, 13.763428%, 32.191467%)" offset="0.410156"/><stop stop-opacity="1" stop-color="rgb(49.147034%, 14.155579%, 32.591248%)" offset="0.414062"/><stop stop-opacity="1" stop-color="rgb(49.824524%, 14.710999%, 32.646179%)" offset="0.417969"/><stop stop-opacity="1" stop-color="rgb(50.502014%, 15.267944%, 32.702637%)" offset="0.421875"/><stop stop-opacity="1" stop-color="rgb(51.177979%, 15.823364%, 32.757568%)" offset="0.425781"/><stop stop-opacity="1" stop-color="rgb(51.855469%, 16.38031%, 32.814026%)" offset="0.429687"/><stop stop-opacity="1" stop-color="rgb(52.531433%, 16.93573%, 32.868958%)" offset="0.433594"/><stop stop-opacity="1" stop-color="rgb(53.208923%, 17.492676%, 32.925415%)" offset="0.4375"/><stop stop-opacity="1" stop-color="rgb(53.884888%, 18.048096%, 32.980347%)" offset="0.441406"/><stop stop-opacity="1" stop-color="rgb(54.562378%, 18.605042%, 33.036804%)" offset="0.445312"/><stop stop-opacity="1" stop-color="rgb(55.238342%, 19.160461%, 33.091736%)" offset="0.449219"/><stop stop-opacity="1" stop-color="rgb(55.915833%, 19.717407%, 33.148193%)" offset="0.453125"/><stop stop-opacity="1" stop-color="rgb(56.591797%, 20.272827%, 33.203125%)" offset="0.457031"/><stop stop-opacity="1" stop-color="rgb(57.269287%, 20.829773%, 33.258057%)" offset="0.460937"/><stop stop-opacity="1" stop-color="rgb(57.945251%, 21.385193%, 33.312988%)" offset="0.464844"/><stop stop-opacity="1" stop-color="rgb(58.622742%, 21.942139%, 33.369446%)" offset="0.46875"/><stop stop-opacity="1" stop-color="rgb(59.298706%, 22.497559%, 33.424377%)" offset="0.472656"/><stop stop-opacity="1" stop-color="rgb(59.976196%, 23.054504%, 33.480835%)" offset="0.476562"/><stop stop-opacity="1" stop-color="rgb(60.653687%, 23.609924%, 33.535767%)" offset="0.480469"/><stop stop-opacity="1" stop-color="rgb(61.331177%, 24.16687%, 33.592224%)" offset="0.484375"/><stop stop-opacity="1" stop-color="rgb(62.007141%, 24.72229%, 33.647156%)" offset="0.488281"/><stop stop-opacity="1" stop-color="rgb(62.684631%, 25.279236%, 33.703613%)" offset="0.492187"/><stop stop-opacity="1" stop-color="rgb(63.360596%, 25.834656%, 33.758545%)" offset="0.496094"/><stop stop-opacity="1" stop-color="rgb(64.038086%, 26.391602%, 33.815002%)" offset="0.5"/><stop stop-opacity="1" stop-color="rgb(64.71405%, 26.947021%, 33.869934%)" offset="0.503906"/><stop stop-opacity="1" stop-color="rgb(65.391541%, 27.503967%, 33.924866%)" offset="0.507812"/><stop stop-opacity="1" stop-color="rgb(66.067505%, 28.059387%, 33.979797%)" offset="0.511719"/><stop stop-opacity="1" stop-color="rgb(66.744995%, 28.616333%, 34.036255%)" offset="0.515625"/><stop stop-opacity="1" stop-color="rgb(67.420959%, 29.171753%, 34.091187%)" offset="0.519531"/><stop stop-opacity="1" stop-color="rgb(68.09845%, 29.728699%, 34.147644%)" offset="0.523438"/><stop stop-opacity="1" stop-color="rgb(68.774414%, 30.284119%, 34.202576%)" offset="0.527344"/><stop stop-opacity="1" stop-color="rgb(69.451904%, 30.841064%, 34.259033%)" offset="0.53125"/><stop stop-opacity="1" stop-color="rgb(70.127869%, 31.39801%, 34.313965%)" offset="0.535156"/><stop stop-opacity="1" stop-color="rgb(70.805359%, 31.954956%, 34.370422%)" offset="0.539062"/><stop stop-opacity="1" stop-color="rgb(71.482849%, 32.510376%, 34.425354%)" offset="0.542969"/><stop stop-opacity="1" stop-color="rgb(72.160339%, 33.067322%, 34.481812%)" offset="0.546875"/><stop stop-opacity="1" stop-color="rgb(72.836304%, 33.622742%, 34.536743%)" offset="0.550781"/><stop stop-opacity="1" stop-color="rgb(73.513794%, 34.179688%, 34.593201%)" offset="0.554688"/><stop stop-opacity="1" stop-color="rgb(74.189758%, 34.735107%, 34.648132%)" offset="0.558594"/><stop stop-opacity="1" stop-color="rgb(74.867249%, 35.292053%, 34.703064%)" offset="0.5625"/><stop stop-opacity="1" stop-color="rgb(75.543213%, 35.847473%, 34.757996%)" offset="0.566406"/><stop stop-opacity="1" stop-color="rgb(76.220703%, 36.404419%, 34.814453%)" offset="0.570312"/><stop stop-opacity="1" stop-color="rgb(76.763916%, 36.885071%, 34.916687%)" offset="0.574219"/><stop stop-opacity="1" stop-color="rgb(77.307129%, 37.365723%, 35.020447%)" offset="0.578125"/><stop stop-opacity="1" stop-color="rgb(77.427673%, 37.606812%, 35.270691%)" offset="0.582031"/><stop stop-opacity="1" stop-color="rgb(77.549744%, 37.849426%, 35.522461%)" offset="0.585937"/><stop stop-opacity="1" stop-color="rgb(77.670288%, 38.090515%, 35.772705%)" offset="0.589844"/><stop stop-opacity="1" stop-color="rgb(77.790833%, 38.33313%, 36.024475%)" offset="0.59375"/><stop stop-opacity="1" stop-color="rgb(77.911377%, 38.574219%, 36.274719%)" offset="0.597656"/><stop stop-opacity="1" stop-color="rgb(78.033447%, 38.816833%, 36.526489%)" offset="0.601562"/><stop stop-opacity="1" stop-color="rgb(78.153992%, 39.057922%, 36.778259%)" offset="0.605469"/><stop stop-opacity="1" stop-color="rgb(78.274536%, 39.300537%, 37.030029%)" offset="0.609375"/><stop stop-opacity="1" stop-color="rgb(78.395081%, 39.541626%, 37.280273%)" offset="0.613281"/><stop stop-opacity="1" stop-color="rgb(78.517151%, 39.784241%, 37.532043%)" offset="0.617187"/><stop stop-opacity="1" stop-color="rgb(78.637695%, 40.026855%, 37.782288%)" offset="0.621094"/><stop stop-opacity="1" stop-color="rgb(78.75824%, 40.26947%, 38.034058%)" offset="0.625"/><stop stop-opacity="1" stop-color="rgb(78.878784%, 40.510559%, 38.284302%)" offset="0.628906"/><stop stop-opacity="1" stop-color="rgb(79.000854%, 40.753174%, 38.536072%)" offset="0.632812"/><stop stop-opacity="1" stop-color="rgb(79.121399%, 40.994263%, 38.787842%)" offset="0.636719"/><stop stop-opacity="1" stop-color="rgb(79.243469%, 41.236877%, 39.039612%)" offset="0.640625"/><stop stop-opacity="1" stop-color="rgb(79.364014%, 41.477966%, 39.289856%)" offset="0.644531"/><stop stop-opacity="1" stop-color="rgb(79.484558%, 41.720581%, 39.541626%)" offset="0.648437"/><stop stop-opacity="1" stop-color="rgb(79.605103%, 41.96167%, 39.79187%)" offset="0.652344"/><stop stop-opacity="1" stop-color="rgb(79.727173%, 42.204285%, 40.04364%)" offset="0.65625"/><stop stop-opacity="1" stop-color="rgb(79.847717%, 42.445374%, 40.293884%)" offset="0.660156"/><stop stop-opacity="1" stop-color="rgb(79.968262%, 42.687988%, 40.545654%)" offset="0.664062"/><stop stop-opacity="1" stop-color="rgb(80.088806%, 42.929077%, 40.797424%)" offset="0.667969"/><stop stop-opacity="1" stop-color="rgb(80.210876%, 43.171692%, 41.049194%)" offset="0.671875"/><stop stop-opacity="1" stop-color="rgb(80.331421%, 43.412781%, 41.299438%)" offset="0.675781"/><stop stop-opacity="1" stop-color="rgb(80.451965%, 43.655396%, 41.551208%)" offset="0.679687"/><stop stop-opacity="1" stop-color="rgb(80.57251%, 43.896484%, 41.801453%)" offset="0.683594"/><stop stop-opacity="1" stop-color="rgb(80.69458%, 44.139099%, 42.053223%)" offset="0.6875"/><stop stop-opacity="1" stop-color="rgb(80.815125%, 44.381714%, 42.303467%)" offset="0.691406"/><stop stop-opacity="1" stop-color="rgb(80.937195%, 44.624329%, 42.555237%)" offset="0.695312"/><stop stop-opacity="1" stop-color="rgb(81.057739%, 44.865417%, 42.805481%)" offset="0.699219"/><stop stop-opacity="1" stop-color="rgb(81.178284%, 45.108032%, 43.057251%)" offset="0.703125"/><stop stop-opacity="1" stop-color="rgb(81.298828%, 45.349121%, 43.309021%)" offset="0.707031"/><stop stop-opacity="1" stop-color="rgb(81.420898%, 45.591736%, 43.560791%)" offset="0.710938"/><stop stop-opacity="1" stop-color="rgb(81.541443%, 45.832825%, 43.811035%)" offset="0.714844"/><stop stop-opacity="1" stop-color="rgb(81.661987%, 46.075439%, 44.062805%)" offset="0.71875"/><stop stop-opacity="1" stop-color="rgb(81.782532%, 46.316528%, 44.313049%)" offset="0.722656"/><stop stop-opacity="1" stop-color="rgb(81.904602%, 46.559143%, 44.564819%)" offset="0.726562"/><stop stop-opacity="1" stop-color="rgb(82.025146%, 46.800232%, 44.815063%)" offset="0.730469"/><stop stop-opacity="1" stop-color="rgb(82.145691%, 47.042847%, 45.066833%)" offset="0.734375"/><stop stop-opacity="1" stop-color="rgb(82.246399%, 47.245789%, 45.277405%)" offset="0.738281"/><stop stop-opacity="1" stop-color="rgb(82.348633%, 47.44873%, 45.489502%)" offset="0.742188"/><stop stop-opacity="1" stop-color="rgb(82.348633%, 47.44873%, 45.489502%)" offset="0.75"/><stop stop-opacity="1" stop-color="rgb(82.348633%, 47.44873%, 45.489502%)" offset="1"/></linearGradient><clipPath id="2a56a767ac"><rect x="0" width="1500" y="0" height="1500"/></clipPath><clipPath id="e3109d9bc9"><rect x="0" width="1500" y="0" height="1500"/></clipPath><clipPath id="838d46a47e"><rect x="0" width="1500" y="0" height="1500"/></clipPath><mask id="4ddaa17ca8"><g filter="url(#1d31f64d9e)"><g transform="matrix(1, 0, 0, 1, 0, 0.000000000000112861)"><g clip-path="url(#838d46a47e)"><g transform="matrix(1, 0, 0, 1, 0, 0.000000000000112861)"><g clip-path="url(#e3109d9bc9)"><g fill="#000000" fill-opacity="1"><g transform="translate(369.567102, 910.721854)"><g><path d="M 168.90625 -158.484375 L 107.546875 0 L 61.671875 0 L 0 -158.484375 L 45.578125 -158.484375 L 85.5 -30.984375 L 124.53125 -158.484375 Z M 168.90625 -158.484375 "/></g></g></g><g fill="#000000" fill-opacity="1"><g transform="translate(513.753937, 910.721854)"><g><path d="M 162.65625 -82.515625 C 162.65625 -76.753906 162.457031 -72.085938 162.0625 -68.515625 L 49.453125 -68.515625 C 51.835938 -39.316406 64.050781 -24.71875 86.09375 -24.71875 C 95.03125 -24.71875 102.425781 -27.101562 108.28125 -31.875 C 114.144531 -36.644531 117.769531 -43.195312 119.15625 -51.53125 L 160.28125 -51.53125 C 156.300781 -33.457031 147.609375 -19.65625 134.203125 -10.125 C 120.796875 -0.59375 104.460938 4.171875 85.203125 4.171875 C 62.359375 4.171875 43.785156 -2.925781 29.484375 -17.125 C 15.191406 -31.332031 8.046875 -51.835938 8.046875 -78.640625 C 8.046875 -103.273438 15.441406 -123.4375 30.234375 -139.125 C 45.035156 -154.8125 64.453125 -162.65625 88.484375 -162.65625 C 111.710938 -162.65625 129.878906 -155.007812 142.984375 -139.71875 C 156.097656 -124.425781 162.65625 -105.359375 162.65625 -82.515625 Z M 86.6875 -133.765625 C 66.226562 -133.765625 54.210938 -120.953125 50.640625 -95.328125 L 120.359375 -95.328125 C 117.578125 -120.953125 106.351562 -133.765625 86.6875 -133.765625 Z M 86.6875 -133.765625 "/></g></g></g><g fill="#000000" fill-opacity="1"><g transform="translate(666.878034, 910.721854)"><g><path d="M 99.5 -162.359375 C 104.070312 -162.359375 107.945312 -161.960938 111.125 -161.171875 L 111.125 -128.09375 C 93.644531 -129.289062 80.734375 -125.566406 72.390625 -116.921875 C 64.046875 -108.285156 59.875 -93.539062 59.875 -72.6875 L 59.875 0 L 18.765625 0 L 18.765625 -158.484375 L 59.875 -158.484375 L 59.875 -129.59375 L 72.390625 -151.640625 C 80.140625 -158.785156 89.175781 -162.359375 99.5 -162.359375 Z M 99.5 -162.359375 "/></g></g></g><g fill="#000000" fill-opacity="1"><g transform="translate(761.016529, 910.721854)"><g><path d="M 22.9375 -211.359375 C 27.101562 -215.429688 32.5625 -217.46875 39.3125 -217.46875 C 46.070312 -217.46875 51.535156 -215.429688 55.703125 -211.359375 C 59.878906 -207.285156 61.96875 -202.070312 61.96875 -195.71875 C 61.96875 -189.164062 59.878906 -183.90625 55.703125 -179.9375 C 51.535156 -175.96875 46.070312 -173.984375 39.3125 -173.984375 C 32.5625 -173.984375 27.101562 -175.96875 22.9375 -179.9375 C 18.769531 -183.90625 16.6875 -189.164062 16.6875 -195.71875 C 16.6875 -202.070312 18.769531 -207.285156 22.9375 -211.359375 Z M 59.875 0 L 18.765625 0 L 18.765625 -158.484375 L 59.875 -158.484375 Z M 59.875 0 "/></g></g></g><g fill="#000000" fill-opacity="1"><g transform="translate(821.193587, 910.721854)"><g><path d="M 64.640625 -178.75 C 64.242188 -175.96875 64.046875 -171.398438 64.046875 -165.046875 L 64.046875 -157.296875 L 96.515625 -157.296875 L 96.515625 -130.1875 L 64.046875 -130.1875 L 64.046875 0 L 22.9375 0 L 22.9375 -130.1875 L 5.953125 -130.1875 L 5.953125 -157.296875 L 22.9375 -157.296875 L 22.9375 -163.84375 C 22.9375 -172.382812 23.132812 -178.441406 23.53125 -182.015625 C 26.113281 -210.421875 45.28125 -224.625 81.03125 -224.625 C 86.988281 -224.625 93.046875 -223.925781 99.203125 -222.53125 L 99.203125 -193.9375 C 89.472656 -195.726562 81.476562 -195.28125 75.21875 -192.59375 C 68.96875 -189.914062 65.441406 -185.300781 64.640625 -178.75 Z M 64.640625 -178.75 "/></g></g></g><g fill="#000000" fill-opacity="1"><g transform="translate(902.819984, 910.721854)"><g><path d="M 110.828125 0 L 107.84375 -23.234375 L 100.09375 -6.25 C 89.769531 0.695312 76.660156 4.171875 60.765625 4.171875 C 46.273438 4.171875 34.160156 0.101562 24.421875 -8.03125 C 14.691406 -16.175781 9.828125 -27.5 9.828125 -42 C 9.828125 -59.476562 17.222656 -72.929688 32.015625 -82.359375 C 46.816406 -91.796875 68.519531 -96.515625 97.125 -96.515625 L 107.25 -96.515625 L 107.25 -99.796875 C 107.25 -106.148438 107.050781 -111.113281 106.65625 -114.6875 C 105.257812 -127.40625 97.113281 -133.765625 82.21875 -133.765625 C 65.738281 -133.765625 56.898438 -124.828125 55.703125 -106.953125 L 15.78125 -106.65625 C 16.382812 -124.125 22.988281 -137.820312 35.59375 -147.75 C 48.207031 -157.6875 64.25 -162.65625 83.71875 -162.65625 C 123.238281 -162.65625 144.390625 -147.066406 147.171875 -115.890625 C 147.765625 -108.335938 148.0625 -100.191406 148.0625 -91.453125 L 148.0625 -40.21875 C 148.0625 -28.101562 149.050781 -14.695312 151.03125 0 Z M 76.5625 -24.71875 C 85.300781 -24.71875 92.597656 -27.695312 98.453125 -33.65625 C 104.316406 -39.613281 107.25 -47.859375 107.25 -58.390625 L 107.25 -71.203125 C 70.707031 -73.785156 52.4375 -65.144531 52.4375 -45.28125 C 52.4375 -31.570312 60.476562 -24.71875 76.5625 -24.71875 Z M 76.5625 -24.71875 "/></g></g></g><g fill="#000000" fill-opacity="1"><g transform="translate(1051.177516, 910.721854)"><g><path d="M 22.9375 -211.359375 C 27.101562 -215.429688 32.5625 -217.46875 39.3125 -217.46875 C 46.070312 -217.46875 51.535156 -215.429688 55.703125 -211.359375 C 59.878906 -207.285156 61.96875 -202.070312 61.96875 -195.71875 C 61.96875 -189.164062 59.878906 -183.90625 55.703125 -179.9375 C 51.535156 -175.96875 46.070312 -173.984375 39.3125 -173.984375 C 32.5625 -173.984375 27.101562 -175.96875 22.9375 -179.9375 C 18.769531 -183.90625 16.6875 -189.164062 16.6875 -195.71875 C 16.6875 -202.070312 18.769531 -207.285156 22.9375 -211.359375 Z M 59.875 0 L 18.765625 0 L 18.765625 -158.484375 L 59.875 -158.484375 Z M 59.875 0 "/></g></g></g></g></g></g></g></g></mask><clipPath id="4211f5f4d4"><path d="M 0 27.222656 L 1500 27.222656 L 1500 1500 L 0 1500 Z M 0 27.222656 " clip-rule="nonzero"/></clipPath><clipPath id="317324d81d"><rect x="0" width="1500" y="0" height="1500"/></clipPath><clipPath id="9cf24bd094"><rect x="0" width="1500" y="0" height="1500"/></clipPath><clipPath id="3c025190e9"><path d="M 564.164062 304.117188 L 936.164062 304.117188 L 936.164062 676.117188 L 564.164062 676.117188 Z M 564.164062 304.117188 " clip-rule="nonzero"/></clipPath><clipPath id="d2e48f8125"><path d="M 0.164062 0.117188 L 371.824219 0.117188 L 371.824219 372 L 0.164062 372 Z M 0.164062 0.117188 " clip-rule="nonzero"/></clipPath><clipPath id="67a879bdda"><rect x="0" width="373" y="0" height="373"/></clipPath></defs><g transform="matrix(1, 0, 0, 1, 0, 0.000000000000112861)"><g clip-path="url(#9cf24bd094)"><g mask="url(#4ddaa17ca8)"><g transform="matrix(1, 0, 0, 1, 0, 0.000000000000112861)"><g clip-path="url(#317324d81d)"><g clip-path="url(#4211f5f4d4)"><path fill="url(#5800b60aa4)" d="M 0 27.222656 L 0 1500 L 1500 1500 L 1500 27.222656 Z M 0 27.222656 " fill-rule="nonzero"/></g></g></g></g></g></g><g clip-path="url(#3c025190e9)"><g transform="matrix(1, 0, 0, 1, 564, 304)"><g clip-path="url(#67a879bdda)"><path fill="#0d0e10" d="M 197.898438 327.527344 C 188.324219 317.949219 188.324219 302.421875 197.898438 292.84375 C 207.476562 283.265625 223.007812 283.265625 232.582031 292.84375 C 242.160156 302.421875 242.160156 317.949219 232.582031 327.527344 C 223.007812 337.105469 207.476562 337.105469 197.898438 327.527344 " fill-opacity="1" fill-rule="nonzero"/><g clip-path="url(#d2e48f8125)"><path fill="#0d0e10" d="M 185.996094 0.101562 C 288.636719 0.101562 371.839844 83.304688 371.839844 185.945312 C 371.839844 190.460938 371.667969 194.933594 371.351562 199.367188 C 326.007812 155.816406 255.546875 153.734375 207.820312 193.160156 L 151.789062 137.132812 C 159.90625 123.386719 158.0625 105.390625 146.253906 93.582031 C 132.257812 79.585938 109.566406 79.585938 95.574219 93.582031 C 81.574219 107.578125 81.574219 130.269531 95.574219 144.261719 C 107.378906 156.074219 125.378906 157.921875 139.117188 149.804688 L 194.855469 205.539062 C 152.164062 252.617188 152.414062 324.742188 195.5625 371.546875 C 192.394531 371.710938 189.203125 371.789062 185.996094 371.789062 C 83.355469 371.789062 0.152344 288.585938 0.152344 185.945312 C 0.152344 83.304688 83.355469 0.101562 185.996094 0.101562 " fill-opacity="1" fill-rule="nonzero"/></g><path fill="#0d0e10" d="M 325.484375 199.945312 C 335.0625 209.523438 335.0625 225.050781 325.484375 234.625 C 315.90625 244.203125 300.378906 244.203125 290.800781 234.625 C 281.222656 225.050781 281.222656 209.523438 290.800781 199.945312 C 300.378906 190.371094 315.90625 190.371094 325.484375 199.945312 " fill-opacity="1" fill-rule="nonzero"/></g></g></g></svg>