<svg xmlns="http://www.w3.org/2000/svg" xmlns:xlink="http://www.w3.org/1999/xlink" width="2000" zoomAndPan="magnify" viewBox="0 0 1500 1499.999933" height="2000" preserveAspectRatio="xMidYMid meet" version="1.0"><defs><filter x="0%" y="0%" width="100%" height="100%" id="79ae4e5f1f"><feColorMatrix values="0 0 0 0 1 0 0 0 0 1 0 0 0 0 1 0 0 0 1 0" color-interpolation-filters="sRGB"/></filter><g/><clipPath id="c4528e598b"><path d="M 201.992188 193.257812 L 1277.449219 193.257812 L 1277.449219 1268.714844 L 201.992188 1268.714844 Z M 201.992188 193.257812 " clip-rule="nonzero"/></clipPath><clipPath id="ffbc61cc73"><path d="M 0.992188 0.257812 L 1075.464844 0.257812 L 1075.464844 1075 L 0.992188 1075 Z M 0.992188 0.257812 " clip-rule="nonzero"/></clipPath><clipPath id="2a83a47c69"><rect x="0" width="1077" y="0" height="1076"/></clipPath><clipPath id="648ed80a5e"><path d="M 0 0 L 1500 0 L 1500 1500 L 0 1500 Z M 0 0 " clip-rule="nonzero"/></clipPath><linearGradient x1="71.867327" gradientTransform="matrix(2.195344, 0, 0, 2.19518, -157.773469, -49.055171)" y1="278" x2="755.131497" gradientUnits="userSpaceOnUse" y2="278" id="d22d5ff672"><stop stop-opacity="1" stop-color="rgb(10.978699%, 1.568604%, 6.669617%)" offset="0"/><stop stop-opacity="1" stop-color="rgb(10.978699%, 1.568604%, 6.669617%)" offset="0.5"/><stop stop-opacity="1" stop-color="rgb(10.978699%, 1.568604%, 6.669617%)" offset="0.625"/><stop stop-opacity="1" stop-color="rgb(10.978699%, 1.568604%, 6.669617%)" offset="0.65625"/><stop stop-opacity="1" stop-color="rgb(13.793945%, 2.478027%, 8.604431%)" offset="0.660156"/><stop stop-opacity="1" stop-color="rgb(16.610718%, 3.387451%, 10.540771%)" offset="0.664062"/><stop stop-opacity="1" stop-color="rgb(20.806885%, 4.742432%, 13.424683%)" offset="0.667969"/><stop stop-opacity="1" stop-color="rgb(25.004578%, 6.098938%, 16.31012%)" offset="0.671875"/><stop stop-opacity="1" stop-color="rgb(29.200745%, 7.453918%, 19.194031%)" offset="0.675781"/><stop stop-opacity="1" stop-color="rgb(33.396912%, 8.810425%, 22.079468%)" offset="0.679688"/><stop stop-opacity="1" stop-color="rgb(37.593079%, 10.165405%, 24.963379%)" offset="0.683594"/><stop stop-opacity="1" stop-color="rgb(41.790771%, 11.520386%, 27.848816%)" offset="0.6875"/><stop stop-opacity="1" stop-color="rgb(45.799255%, 13.108826%, 30.247498%)" offset="0.691406"/><stop stop-opacity="1" stop-color="rgb(49.807739%, 14.697266%, 32.646179%)" offset="0.695312"/><stop stop-opacity="1" stop-color="rgb(52.987671%, 17.311096%, 32.907104%)" offset="0.699219"/><stop stop-opacity="1" stop-color="rgb(56.169128%, 19.924927%, 33.16803%)" offset="0.703125"/><stop stop-opacity="1" stop-color="rgb(59.34906%, 22.538757%, 33.428955%)" offset="0.707031"/><stop stop-opacity="1" stop-color="rgb(62.530518%, 25.152588%, 33.68988%)" offset="0.710938"/><stop stop-opacity="1" stop-color="rgb(65.710449%, 27.766418%, 33.950806%)" offset="0.714844"/><stop stop-opacity="1" stop-color="rgb(68.890381%, 30.380249%, 34.213257%)" offset="0.71875"/><stop stop-opacity="1" stop-color="rgb(72.070312%, 32.99408%, 34.474182%)" offset="0.722656"/><stop stop-opacity="1" stop-color="rgb(75.25177%, 35.60791%, 34.735107%)" offset="0.726562"/><stop stop-opacity="1" stop-color="rgb(76.64032%, 37.208557%, 35.626221%)" offset="0.730469"/><stop stop-opacity="1" stop-color="rgb(78.02887%, 38.809204%, 36.51886%)" offset="0.734375"/><stop stop-opacity="1" stop-color="rgb(78.596497%, 39.945984%, 37.698364%)" offset="0.738281"/><stop stop-opacity="1" stop-color="rgb(79.165649%, 41.082764%, 38.879395%)" offset="0.742188"/><stop stop-opacity="1" stop-color="rgb(79.733276%, 42.219543%, 40.058899%)" offset="0.746094"/><stop stop-opacity="1" stop-color="rgb(80.302429%, 43.356323%, 41.239929%)" offset="0.75"/><stop stop-opacity="1" stop-color="rgb(80.871582%, 44.493103%, 42.420959%)" offset="0.753906"/><stop stop-opacity="1" stop-color="rgb(81.440735%, 45.631409%, 43.60199%)" offset="0.757812"/><stop stop-opacity="1" stop-color="rgb(81.893921%, 46.539307%, 44.544983%)" offset="0.761719"/><stop stop-opacity="1" stop-color="rgb(82.348633%, 47.44873%, 45.489502%)" offset="0.765625"/><stop stop-opacity="1" stop-color="rgb(82.348633%, 47.44873%, 45.489502%)" offset="0.78125"/><stop stop-opacity="1" stop-color="rgb(82.348633%, 47.44873%, 45.489502%)" offset="0.8125"/><stop stop-opacity="1" stop-color="rgb(82.348633%, 47.44873%, 45.489502%)" offset="0.875"/><stop stop-opacity="1" stop-color="rgb(82.348633%, 47.44873%, 45.489502%)" offset="1"/></linearGradient><clipPath id="7507f4438b"><rect x="0" width="1500" y="0" height="1500"/></clipPath><clipPath id="78b2216939"><rect x="0" width="1500" y="0" height="1500"/></clipPath><clipPath id="2e896c7664"><rect x="0" width="1500" y="0" height="1500"/></clipPath><mask id="d9ceac877d"><g filter="url(#79ae4e5f1f)"><g transform="matrix(1, 0, 0, 1, 0, 0.000000000000112861)"><g clip-path="url(#2e896c7664)"><g transform="matrix(1, 0, 0, 1, 0, 0.000000000000112861)"><g clip-path="url(#78b2216939)"><g fill="#000000" fill-opacity="1"><g transform="translate(987.07645, 880.579726)"><g><path d="M 54.046875 -113.78125 C 67.421875 -127.4375 84.859375 -134.265625 106.359375 -134.265625 C 127.867188 -134.265625 145.453125 -127.4375 159.109375 -113.78125 C 172.773438 -100.125 179.609375 -82.539062 179.609375 -61.03125 C 179.609375 -39.519531 172.773438 -21.9375 159.109375 -8.28125 C 145.453125 5.375 127.867188 12.203125 106.359375 12.203125 C 84.859375 12.203125 67.421875 5.375 54.046875 -8.28125 C 40.679688 -21.9375 34 -39.519531 34 -61.03125 C 34 -82.539062 40.679688 -100.125 54.046875 -113.78125 Z M 54.046875 -113.78125 "/></g></g></g></g></g></g></g></g></mask><clipPath id="6385f24ece"><path d="M 0 0 L 1500 0 L 1500 1500 L 0 1500 Z M 0 0 " clip-rule="nonzero"/></clipPath><clipPath id="b7a9a548d1"><rect x="0" width="1500" y="0" height="1500"/></clipPath><clipPath id="06e7c75e89"><rect x="0" width="1500" y="0" height="1500"/></clipPath><clipPath id="8a507577e1"><rect x="0" width="1500" y="0" height="1500"/></clipPath><clipPath id="49ad7dce6b"><path d="M 0 0 L 1500 0 L 1500 1500 L 0 1500 Z M 0 0 " clip-rule="nonzero"/></clipPath><linearGradient x1="193.670748" gradientTransform="matrix(2.195344, 0, 0, 2.19518, -425.173874, 217.811212)" y1="278" x2="876.934918" gradientUnits="userSpaceOnUse" y2="278" id="69f201b87b"><stop stop-opacity="1" stop-color="rgb(10.978699%, 1.568604%, 6.669617%)" offset="0"/><stop stop-opacity="1" stop-color="rgb(10.978699%, 1.568604%, 6.669617%)" offset="0.25"/><stop stop-opacity="1" stop-color="rgb(10.978699%, 1.568604%, 6.669617%)" offset="0.375"/><stop stop-opacity="1" stop-color="rgb(10.978699%, 1.568604%, 6.669617%)" offset="0.4375"/><stop stop-opacity="1" stop-color="rgb(10.978699%, 1.568604%, 6.669617%)" offset="0.46875"/><stop stop-opacity="1" stop-color="rgb(10.978699%, 1.568604%, 6.669617%)" offset="0.476562"/><stop stop-opacity="1" stop-color="rgb(13.031006%, 2.230835%, 8.079529%)" offset="0.480469"/><stop stop-opacity="1" stop-color="rgb(15.084839%, 2.894592%, 9.490967%)" offset="0.484375"/><stop stop-opacity="1" stop-color="rgb(19.281006%, 4.249573%, 12.374878%)" offset="0.488281"/><stop stop-opacity="1" stop-color="rgb(23.477173%, 5.606079%, 15.260315%)" offset="0.492188"/><stop stop-opacity="1" stop-color="rgb(27.67334%, 6.96106%, 18.144226%)" offset="0.496094"/><stop stop-opacity="1" stop-color="rgb(31.871033%, 8.31604%, 21.029663%)" offset="0.5"/><stop stop-opacity="1" stop-color="rgb(36.0672%, 9.671021%, 23.913574%)" offset="0.503906"/><stop stop-opacity="1" stop-color="rgb(40.264893%, 11.027527%, 26.799011%)" offset="0.507812"/><stop stop-opacity="1" stop-color="rgb(44.458008%, 12.387085%, 29.675293%)" offset="0.511719"/><stop stop-opacity="1" stop-color="rgb(48.651123%, 13.746643%, 32.551575%)" offset="0.515625"/><stop stop-opacity="1" stop-color="rgb(51.831055%, 16.360474%, 32.8125%)" offset="0.519531"/><stop stop-opacity="1" stop-color="rgb(55.012512%, 18.974304%, 33.073425%)" offset="0.523437"/><stop stop-opacity="1" stop-color="rgb(58.192444%, 21.588135%, 33.334351%)" offset="0.527344"/><stop stop-opacity="1" stop-color="rgb(61.373901%, 24.201965%, 33.595276%)" offset="0.53125"/><stop stop-opacity="1" stop-color="rgb(64.553833%, 26.815796%, 33.856201%)" offset="0.535156"/><stop stop-opacity="1" stop-color="rgb(67.733765%, 29.429626%, 34.118652%)" offset="0.539062"/><stop stop-opacity="1" stop-color="rgb(70.913696%, 32.043457%, 34.379578%)" offset="0.542969"/><stop stop-opacity="1" stop-color="rgb(74.095154%, 34.657288%, 34.640503%)" offset="0.546875"/><stop stop-opacity="1" stop-color="rgb(75.958252%, 36.526489%, 35.365295%)" offset="0.550781"/><stop stop-opacity="1" stop-color="rgb(77.822876%, 38.395691%, 36.090088%)" offset="0.554688"/><stop stop-opacity="1" stop-color="rgb(78.390503%, 39.532471%, 37.269592%)" offset="0.558594"/><stop stop-opacity="1" stop-color="rgb(78.959656%, 40.66925%, 38.450623%)" offset="0.5625"/><stop stop-opacity="1" stop-color="rgb(79.527283%, 41.80603%, 39.630127%)" offset="0.566406"/><stop stop-opacity="1" stop-color="rgb(80.096436%, 42.94281%, 40.811157%)" offset="0.570312"/><stop stop-opacity="1" stop-color="rgb(80.664062%, 44.07959%, 41.990662%)" offset="0.574219"/><stop stop-opacity="1" stop-color="rgb(81.233215%, 45.217896%, 43.171692%)" offset="0.578125"/><stop stop-opacity="1" stop-color="rgb(81.790161%, 46.333313%, 44.329834%)" offset="0.582031"/><stop stop-opacity="1" stop-color="rgb(82.348633%, 47.44873%, 45.489502%)" offset="0.585937"/><stop stop-opacity="1" stop-color="rgb(82.348633%, 47.44873%, 45.489502%)" offset="0.59375"/><stop stop-opacity="1" stop-color="rgb(82.348633%, 47.44873%, 45.489502%)" offset="0.625"/><stop stop-opacity="1" stop-color="rgb(82.348633%, 47.44873%, 45.489502%)" offset="0.75"/><stop stop-opacity="1" stop-color="rgb(82.348633%, 47.44873%, 45.489502%)" offset="1"/></linearGradient><clipPath id="9fe0f38823"><rect x="0" width="1500" y="0" height="1500"/></clipPath><clipPath id="4281f65ab2"><rect x="0" width="1500" y="0" height="1500"/></clipPath><clipPath id="0d6089f445"><rect x="0" width="1500" y="0" height="1500"/></clipPath><mask id="26cc6fc013"><g filter="url(#79ae4e5f1f)"><g transform="matrix(1, 0, 0, 1, 0, 0.000000000000112861)"><g clip-path="url(#0d6089f445)"><g transform="matrix(1, 0, 0, 1, 0, 0.000000000000112861)"><g clip-path="url(#4281f65ab2)"><g fill="#000000" fill-opacity="1"><g transform="translate(719.676024, 1147.446139)"><g><path d="M 54.046875 -113.78125 C 67.421875 -127.4375 84.859375 -134.265625 106.359375 -134.265625 C 127.867188 -134.265625 145.453125 -127.4375 159.109375 -113.78125 C 172.773438 -100.125 179.609375 -82.539062 179.609375 -61.03125 C 179.609375 -39.519531 172.773438 -21.9375 159.109375 -8.28125 C 145.453125 5.375 127.867188 12.203125 106.359375 12.203125 C 84.859375 12.203125 67.421875 5.375 54.046875 -8.28125 C 40.679688 -21.9375 34 -39.519531 34 -61.03125 C 34 -82.539062 40.679688 -100.125 54.046875 -113.78125 Z M 54.046875 -113.78125 "/></g></g></g></g></g></g></g></g></mask><clipPath id="0c314baff8"><path d="M 0 0 L 1500 0 L 1500 1500 L 0 1500 Z M 0 0 " clip-rule="nonzero"/></clipPath><clipPath id="2b545a971a"><rect x="0" width="1500" y="0" height="1500"/></clipPath><clipPath id="512f4bcd80"><rect x="0" width="1500" y="0" height="1500"/></clipPath><clipPath id="0277ccf72e"><rect x="0" width="1500" y="0" height="1500"/></clipPath><clipPath id="322083234d"><path d="M 0 0 L 1500 0 L 1500 1500 L 0 1500 Z M 0 0 " clip-rule="nonzero"/></clipPath><linearGradient x1="95.198397" gradientTransform="matrix(2.195344, 0, 0, 2.19518, -208.993192, 155.086841)" y1="278" x2="778.462567" gradientUnits="userSpaceOnUse" y2="278" id="813c93f40a"><stop stop-opacity="1" stop-color="rgb(10.978699%, 1.568604%, 6.669617%)" offset="0"/><stop stop-opacity="1" stop-color="rgb(10.978699%, 1.568604%, 6.669617%)" offset="0.5"/><stop stop-opacity="1" stop-color="rgb(11.154175%, 1.625061%, 6.788635%)" offset="0.625"/><stop stop-opacity="1" stop-color="rgb(15.525818%, 3.036499%, 9.793091%)" offset="0.628906"/><stop stop-opacity="1" stop-color="rgb(19.721985%, 4.393005%, 12.678528%)" offset="0.632812"/><stop stop-opacity="1" stop-color="rgb(23.918152%, 5.747986%, 15.562439%)" offset="0.636719"/><stop stop-opacity="1" stop-color="rgb(28.115845%, 7.104492%, 18.447876%)" offset="0.640625"/><stop stop-opacity="1" stop-color="rgb(32.312012%, 8.459473%, 21.333313%)" offset="0.644531"/><stop stop-opacity="1" stop-color="rgb(36.509705%, 9.814453%, 24.21875%)" offset="0.648438"/><stop stop-opacity="1" stop-color="rgb(40.705872%, 11.169434%, 27.102661%)" offset="0.652344"/><stop stop-opacity="1" stop-color="rgb(44.902039%, 12.52594%, 29.988098%)" offset="0.65625"/><stop stop-opacity="1" stop-color="rgb(48.53363%, 14.579773%, 31.413269%)" offset="0.660156"/><stop stop-opacity="1" stop-color="rgb(52.165222%, 16.635132%, 32.839966%)" offset="0.664062"/><stop stop-opacity="1" stop-color="rgb(55.345154%, 19.248962%, 33.100891%)" offset="0.667969"/><stop stop-opacity="1" stop-color="rgb(58.526611%, 21.862793%, 33.361816%)" offset="0.671875"/><stop stop-opacity="1" stop-color="rgb(61.706543%, 24.476624%, 33.622742%)" offset="0.675781"/><stop stop-opacity="1" stop-color="rgb(64.888%, 27.090454%, 33.883667%)" offset="0.679687"/><stop stop-opacity="1" stop-color="rgb(68.067932%, 29.704285%, 34.144592%)" offset="0.683594"/><stop stop-opacity="1" stop-color="rgb(71.24939%, 32.318115%, 34.407043%)" offset="0.6875"/><stop stop-opacity="1" stop-color="rgb(74.281311%, 34.848022%, 34.719849%)" offset="0.691406"/><stop stop-opacity="1" stop-color="rgb(77.313232%, 37.37793%, 35.032654%)" offset="0.695312"/><stop stop-opacity="1" stop-color="rgb(77.880859%, 38.514709%, 36.213684%)" offset="0.699219"/><stop stop-opacity="1" stop-color="rgb(78.450012%, 39.653015%, 37.394714%)" offset="0.703125"/><stop stop-opacity="1" stop-color="rgb(79.019165%, 40.789795%, 38.574219%)" offset="0.707031"/><stop stop-opacity="1" stop-color="rgb(79.588318%, 41.926575%, 39.755249%)" offset="0.710938"/><stop stop-opacity="1" stop-color="rgb(80.155945%, 43.063354%, 40.934753%)" offset="0.714844"/><stop stop-opacity="1" stop-color="rgb(80.725098%, 44.200134%, 42.115784%)" offset="0.71875"/><stop stop-opacity="1" stop-color="rgb(81.292725%, 45.336914%, 43.295288%)" offset="0.722656"/><stop stop-opacity="1" stop-color="rgb(81.861877%, 46.473694%, 44.476318%)" offset="0.726562"/><stop stop-opacity="1" stop-color="rgb(82.104492%, 46.960449%, 44.98291%)" offset="0.730469"/><stop stop-opacity="1" stop-color="rgb(82.348633%, 47.44873%, 45.489502%)" offset="0.734375"/><stop stop-opacity="1" stop-color="rgb(82.348633%, 47.44873%, 45.489502%)" offset="0.75"/><stop stop-opacity="1" stop-color="rgb(82.348633%, 47.44873%, 45.489502%)" offset="1"/></linearGradient><clipPath id="b9049eff5f"><rect x="0" width="1500" y="0" height="1500"/></clipPath><clipPath id="a8f8597ce2"><rect x="0" width="1500" y="0" height="1500"/></clipPath><clipPath id="9e4e0597f5"><rect x="0" width="1500" y="0" height="1500"/></clipPath><mask id="856c686191"><g filter="url(#79ae4e5f1f)"><g transform="matrix(1, 0, 0, 1, 0, 0.000000000000112861)"><g clip-path="url(#9e4e0597f5)"><g transform="matrix(1, 0, 0, 1, 0, 0.000000000000112861)"><g clip-path="url(#a8f8597ce2)"><g fill="#000000" fill-opacity="1"><g transform="translate(935.856745, 1084.721712)"><g><path d="M 54.046875 -113.78125 C 67.421875 -127.4375 84.859375 -134.265625 106.359375 -134.265625 C 127.867188 -134.265625 145.453125 -127.4375 159.109375 -113.78125 C 172.773438 -100.125 179.609375 -82.539062 179.609375 -61.03125 C 179.609375 -39.519531 172.773438 -21.9375 159.109375 -8.28125 C 145.453125 5.375 127.867188 12.203125 106.359375 12.203125 C 84.859375 12.203125 67.421875 5.375 54.046875 -8.28125 C 40.679688 -21.9375 34 -39.519531 34 -61.03125 C 34 -82.539062 40.679688 -100.125 54.046875 -113.78125 Z M 54.046875 -113.78125 "/></g></g></g></g></g></g></g></g></mask><clipPath id="6c44aa63c2"><path d="M 0 0 L 1500 0 L 1500 1500 L 0 1500 Z M 0 0 " clip-rule="nonzero"/></clipPath><clipPath id="b7ca826409"><rect x="0" width="1500" y="0" height="1500"/></clipPath><clipPath id="f8a36f9696"><rect x="0" width="1500" y="0" height="1500"/></clipPath><clipPath id="34b17bdd2f"><rect x="0" width="1500" y="0" height="1500"/></clipPath><clipPath id="f117e74b3e"><rect x="0" width="1500" y="0" height="1500"/></clipPath></defs><g transform="matrix(1, 0, 0, 1, 0, 0.000000000000112861)"><g clip-path="url(#f117e74b3e)"><g clip-path="url(#c4528e598b)"><g transform="matrix(1, 0, 0, 1, 201, 193)"><g clip-path="url(#2a83a47c69)"><path fill="#0d0e10" d="M 572.644531 946.808594 C 544.964844 919.117188 544.964844 874.238281 572.644531 846.546875 C 600.335938 818.855469 645.226562 818.855469 672.90625 846.546875 C 700.597656 874.238281 700.597656 919.117188 672.90625 946.808594 C 645.226562 974.5 600.335938 974.5 572.644531 946.808594 " fill-opacity="1" fill-rule="nonzero"/><g clip-path="url(#ffbc61cc73)"><path fill="#0d0e10" d="M 538.226562 0.21875 C 834.960938 0.21875 1075.503906 240.761719 1075.503906 537.496094 C 1075.503906 550.546875 1075.011719 563.484375 1074.097656 576.292969 C 943 450.390625 739.300781 444.367188 601.320312 558.355469 L 439.339844 396.375 C 462.808594 356.640625 457.46875 304.613281 423.335938 270.472656 C 382.867188 230.011719 317.273438 230.011719 276.8125 270.472656 C 236.34375 310.941406 236.34375 376.535156 276.8125 416.992188 C 310.945312 451.136719 362.984375 456.472656 402.707031 433.007812 L 563.847656 594.136719 C 440.421875 730.246094 441.148438 938.757812 565.886719 1074.070312 C 556.734375 1074.542969 547.507812 1074.773438 538.226562 1074.773438 C 241.496094 1074.773438 0.949219 834.230469 0.949219 537.496094 C 0.949219 240.761719 241.496094 0.21875 538.226562 0.21875 " fill-opacity="1" fill-rule="nonzero"/></g><path fill="#0d0e10" d="M 941.488281 577.964844 C 969.179688 605.65625 969.179688 650.546875 941.488281 678.230469 C 913.796875 705.917969 868.914062 705.917969 841.222656 678.230469 C 813.535156 650.546875 813.535156 605.65625 841.222656 577.964844 C 868.914062 550.285156 913.796875 550.285156 941.488281 577.964844 " fill-opacity="1" fill-rule="nonzero"/></g></g></g><g transform="matrix(1, 0, 0, 1, 0, 0.000000000000112861)"><g clip-path="url(#8a507577e1)"><g transform="matrix(1, 0, 0, 1, 0, 0.000000000000112861)"><g clip-path="url(#06e7c75e89)"><g mask="url(#d9ceac877d)"><g transform="matrix(1, 0, 0, 1, 0, 0.000000000000112861)"><g clip-path="url(#b7a9a548d1)"><g clip-path="url(#6385f24ece)"><rect x="-1116.24" fill="url(#d22d5ff672)" width="3732.48" y="-1116.23995" height="3732.479834"/></g></g></g></g></g></g></g></g><g transform="matrix(1, 0, 0, 1, 0, 0.000000000000112861)"><g clip-path="url(#0277ccf72e)"><g transform="matrix(1, 0, 0, 1, 0, 0.000000000000112861)"><g clip-path="url(#512f4bcd80)"><g mask="url(#26cc6fc013)"><g transform="matrix(1, 0, 0, 1, 0, 0.000000000000112861)"><g clip-path="url(#2b545a971a)"><g clip-path="url(#0c314baff8)"><rect x="-1116.24" fill="url(#69f201b87b)" width="3732.48" y="-1116.23995" height="3732.479834"/></g></g></g></g></g></g></g></g><g transform="matrix(1, 0, 0, 1, 0, 0.000000000000112861)"><g clip-path="url(#34b17bdd2f)"><g transform="matrix(1, 0, 0, 1, 0, 0.000000000000112861)"><g clip-path="url(#f8a36f9696)"><g mask="url(#856c686191)"><g transform="matrix(1, 0, 0, 1, 0, 0.000000000000112861)"><g clip-path="url(#b7ca826409)"><g clip-path="url(#6c44aa63c2)"><rect x="-1116.24" fill="url(#813c93f40a)" width="3732.48" y="-1116.23995" height="3732.479834"/></g></g></g></g></g></g></g></g></g></g></svg>